<svg width="59" height="59" viewBox="0 0 59 59" fill="none" xmlns="http://www.w3.org/2000/svg">
<path d="M46.3521 2.11666C46.3521 1.31608 45.8886 0.55764 45.1723 0.220554C44.4139 -0.158668 43.5712 -0.0322609 42.9391 0.473369L24.273 15.3473L46.3521 37.4265V2.11666V2.11666Z" fill="white"/>
<path d="M58.3777 55.4016L3.60119 0.625059C2.77954 -0.196589 1.44384 -0.196589 0.622187 0.625059C-0.199461 1.44671 -0.199461 2.78241 0.622187 3.60406L13.8781 16.8642H12.6435C11.3373 16.8642 10.1997 17.4541 9.44121 18.3811C8.80917 19.0974 8.42995 20.0665 8.42995 21.0778V37.9321C8.42995 40.2496 10.3261 42.1457 12.6435 42.1457H22.419L42.9392 58.5365C43.3184 58.8314 43.7819 59 44.2454 59C44.5403 59 44.8774 58.9157 45.1724 58.7893C45.8887 58.4522 46.3522 57.6938 46.3522 56.8932V49.3383L55.3945 58.3806C55.8074 58.7935 56.3468 59 56.8861 59C57.4255 59 57.9648 58.7935 58.3777 58.3848C59.1994 57.559 59.1994 56.2275 58.3777 55.4016Z" fill="white"/>
</svg>
