<svg width="64" height="64" viewBox="0 0 64 64" fill="none" xmlns="http://www.w3.org/2000/svg">
<path d="M37.1925 2.34361C36.4501 1.98947 35.5755 2.08334 34.9355 2.59961L14.1824 19.2012H4.26667C1.91573 19.2012 0 21.1169 0 23.4679V40.5345C0 42.8897 1.91573 44.8012 4.26667 44.8012H14.1824L34.9312 61.4028C35.3195 61.71 35.7931 61.8679 36.2667 61.8679C36.5824 61.8679 36.8981 61.7953 37.1925 61.6545C37.9307 61.3004 38.4 60.5537 38.4 59.7345V4.26787C38.4 3.44867 37.9307 2.70201 37.1925 2.34361Z" fill="white"/>
<path d="M49.1989 16.9143C48.3584 16.0865 47.0101 16.0993 46.1824 16.9313C45.3547 17.7719 45.3632 19.1201 46.1995 19.9521C49.4251 23.1351 51.2 27.4145 51.2 32.0012C51.2 36.5879 49.4251 40.8673 46.1995 44.0503C45.3632 44.8737 45.3547 46.2263 46.1824 47.0668C46.6005 47.4892 47.1509 47.6983 47.6971 47.6983C48.2389 47.6983 48.7808 47.4935 49.1989 47.0796C53.2437 43.0988 55.4667 37.7399 55.4667 32.0012C55.4667 26.2625 53.2437 20.9036 49.1989 16.9143Z" fill="white"/>
<path d="M55.2192 10.9025C54.3787 10.0705 53.0304 10.0791 52.1984 10.9153C51.3707 11.7516 51.3792 13.1041 52.2112 13.9319C57.0624 18.7404 59.7334 25.1575 59.7334 32.0012C59.7334 38.8449 57.0624 45.2577 52.2112 50.0663C51.3792 50.8983 51.3707 52.2508 52.1984 53.0871C52.6208 53.5052 53.167 53.7143 53.7131 53.7143C54.255 53.7143 54.8011 53.5095 55.2192 53.0956C60.8854 47.4849 64 39.9927 64 32.0012C64 24.0097 60.8854 16.5175 55.2192 10.9025Z" fill="white"/>
</svg>
